HIERARCHY
ROOT root
{
	OFFSET 0.000000 0.000000 0.000000
	CHANNELS 6 Xposition Yposition Zposition Zrotation Yrotation Xrotation
	JOINT lhip
	{
		OFFSET 0.058581 -0.082280 -0.017664
		CHANNELS 3 Zrotation Yrotation Xrotation
		JOINT lknee
		{
			OFFSET 0.043451 -0.386469 0.008037
			CHANNELS 3 Zrotation Yrotation Xrotation
			JOINT lankle
			{
				OFFSET -0.014790 -0.426874 -0.037428
				CHANNELS 3 Zrotation Yrotation Xrotation
				JOINT ltoe
				{
					OFFSET 0.041054 -0.060286 0.122042
					CHANNELS 3 Zrotation Yrotation Xrotation
					End Site
					{
						OFFSET 0.000000 0.000000 0.000000
					}
				}
			}
		}
	}
	JOINT rhip
	{
		OFFSET -0.060310 -0.090513 -0.013543
		CHANNELS 3 Zrotation Yrotation Xrotation
		JOINT rknee
		{
			OFFSET -0.043257 -0.383688 -0.004843
			CHANNELS 3 Zrotation Yrotation Xrotation
			JOINT rankle
			{
				OFFSET 0.019056 -0.420046 -0.034562
				CHANNELS 3 Zrotation Yrotation Xrotation
				JOINT rtoe
				{
					OFFSET -0.034840 -0.062106 0.130323
					CHANNELS 3 Zrotation Yrotation Xrotation
					End Site
					{
						OFFSET 0.000000 0.000000 0.000000
					}
				}
			}
		}
	}
	JOINT lowerback
	{
		OFFSET 0.004439 0.124404 -0.038385
		CHANNELS 3 Zrotation Yrotation Xrotation
		JOINT upperback
		{
			OFFSET 0.004488 0.137956 0.026820
			CHANNELS 3 Zrotation Yrotation Xrotation
			JOINT chest
			{
				OFFSET -0.002265 0.056032 0.002855
				CHANNELS 3 Zrotation Yrotation Xrotation
				JOINT lowerneck
				{
					OFFSET -0.013390 0.211636 -0.033468
					CHANNELS 3 Zrotation Yrotation Xrotation
					JOINT upperneck
					{
						OFFSET 0.010113 0.088937 0.050410
						CHANNELS 3 Zrotation Yrotation Xrotation
						End Site
						{
							OFFSET 0.000000 0.000000 0.000000
						}
					}
				}
				JOINT lclavicle
				{
					OFFSET 0.071702 0.114000 -0.018898
					CHANNELS 3 Zrotation Yrotation Xrotation
					JOINT lshoulder
					{
						OFFSET 0.122921 0.045205 -0.019046
						CHANNELS 3 Zrotation Yrotation Xrotation
						JOINT lelbow
						{
							OFFSET 0.255332 -0.015649 -0.022946
							CHANNELS 3 Zrotation Yrotation Xrotation
							JOINT lwrist
							{
								OFFSET 0.265709 0.012698 -0.007375
								CHANNELS 3 Zrotation Yrotation Xrotation
								End Site
								{
									OFFSET 0.000000 0.000000 0.000000
								}
							}
						}
					}
				}
				JOINT rclavicle
				{
					OFFSET -0.082954 0.112472 -0.023707
					CHANNELS 3 Zrotation Yrotation Xrotation
					JOINT rshoulder
					{
						OFFSET -0.113228 0.046853 -0.008472
						CHANNELS 3 Zrotation Yrotation Xrotation
						JOINT relbow
						{
							OFFSET -0.260127 -0.014369 -0.031269
							CHANNELS 3 Zrotation Yrotation Xrotation
							JOINT rwrist
							{
								OFFSET -0.269108 0.006794 -0.006027
								CHANNELS 3 Zrotation Yrotation Xrotation
								End Site
								{
									OFFSET 0.000000 0.000000 0.000000
								}
							}
						}
					}
				}
			}
		}
	}
}
MOTION
Frames: 7
Frame Time: 0.033333
-0.009059 0.395276 0.981165 61.332043 3.081300 83.252003 3.159925 4.806030 14.065135 -3.389194 -5.663321 0.381095 4.580961 9.996346 -16.338469 0.000000 -0.000000 0.000000 -6.480452 0.562263 -10.447115 -0.961059 1.752837 29.877238 7.731371 -6.138780 -10.737143 0.000000 -0.000000 0.000000 -3.254747 -1.564192 3.631360 2.762063 -2.122560 6.961329 -1.005155 -1.419599 -0.605752 4.553545 -0.489111 -6.977818 -0.336797 -10.124416 6.363484 -29.793907 -2.575345 1.998643 -46.791267 -8.053393 16.148059 -9.791567 -37.873323 30.460796 -14.912227 -2.700797 12.427873 30.677795 0.183289 4.644253 43.003659 1.089467 12.299499 -12.681036 38.660942 6.410060 26.906212 -0.005236 8.480488 
-0.005083 0.387474 0.978654 61.153095 3.392138 83.911569 3.848637 4.830464 13.587671 -3.377689 -5.415030 0.675696 3.447107 9.755896 -16.557854 0.000000 -0.000000 0.000000 -6.718838 0.395010 -11.736323 -0.758490 1.932880 28.643753 8.060941 -5.759940 -10.463482 0.000000 -0.000000 0.000000 -2.272430 -2.287527 2.713140 2.271242 -2.217057 6.769440 -1.065027 -1.911019 -0.213249 4.030222 -0.540316 -6.667514 -0.491178 -8.544179 6.287153 -28.779357 -2.413765 2.029883 -47.104350 -7.631214 15.683078 -9.772280 -39.585232 31.848048 -18.758598 -2.693815 10.649482 28.149051 -0.833283 3.367642 40.971641 2.168937 11.631736 -16.665442 47.054284 5.368928 31.008539 0.439736 7.898195 
-0.000999 0.379076 0.977428 60.689536 3.354526 84.096812 4.221705 5.053621 13.775761 -3.333078 -4.572002 1.010561 3.687625 9.095815 -17.035315 0.000000 -0.000000 0.000000 -7.276277 0.377299 -12.434102 -0.896551 2.101138 27.155022 8.381864 -5.352571 -9.775095 0.000000 -0.000000 0.000000 -2.048987 -2.417580 1.947696 2.358156 -2.545970 7.965800 -1.149892 -2.081652 -0.667447 4.102034 -0.318051 -6.830548 -0.820291 -7.915492 5.705168 -28.388110 -2.423426 1.770229 -46.640648 -7.072689 14.763254 -10.523370 -41.150480 32.986263 -29.444490 -0.482375 8.877039 26.310825 -1.588817 2.585303 38.045678 3.700832 9.598502 -28.839308 56.260795 -6.569609 34.993567 -0.319870 9.966851 
0.003068 0.366984 0.976579 60.061020 3.439438 83.981975 4.856998 5.582400 14.087496 -3.005528 -4.397204 1.938187 3.352015 9.035143 -17.644188 0.000000 -0.000000 0.000000 -7.633894 0.225074 -12.888532 -1.012460 2.631667 24.961235 8.515827 -5.818435 -8.121570 0.000000 -0.000000 0.000000 -1.377870 -2.547431 2.232614 2.125381 -2.929060 7.767664 -1.434615 -2.171915 -0.446021 4.553765 -0.730919 -6.744097 -0.765007 -6.838270 4.879731 -27.624424 -2.552676 1.500897 -46.538046 -6.593622 13.620145 -10.017232 -42.341967 32.717385 -28.329687 -1.987212 6.766772 23.255139 -1.272425 0.133957 34.668169 6.210380 6.766146 -54.489587 62.082129 -30.901526 29.816139 2.131402 10.022434 
0.004676 0.359224 0.976381 59.795509 3.457788 83.981713 5.290602 5.779794 13.730565 -3.004006 -4.315881 3.369210 3.039839 8.953548 -18.295344 0.000000 -0.000000 0.000000 -7.799520 0.200250 -13.288491 -1.268890 2.765128 23.790844 8.777129 -6.237315 -6.535246 0.000000 -0.000000 0.000000 -1.023358 -2.595679 2.591710 1.971681 -3.141729 7.548042 -1.576099 -2.200102 -0.281770 5.210020 -1.130342 -7.100449 -1.028457 -6.266046 4.508904 -26.916491 -2.707454 1.314081 -46.982782 -6.387850 12.925206 -9.294730 -42.620488 32.295872 -26.382785 -2.460664 6.580990 21.303589 -0.509669 -1.657973 32.020884 8.870276 4.152850 -70.067349 60.851629 -47.200571 25.335383 3.820799 8.296051 
0.006080 0.348482 0.976035 59.551987 3.413102 84.160818 5.679867 5.838132 12.851809 -2.879100 -4.125598 5.613297 2.754606 9.019130 -19.268555 0.000000 -0.000000 0.000000 -8.032220 -0.138695 -14.103322 -1.425473 3.183954 22.485870 8.896024 -7.146787 -4.395072 0.000000 -0.000000 0.000000 -0.399734 -2.552628 2.972245 1.682118 -3.319647 7.505843 -1.840955 -2.291793 -0.018011 6.244960 -1.940811 -7.931776 -1.186084 -5.644407 3.575959 -26.000360 -3.325407 1.014750 -47.308626 -6.067660 12.469720 -8.608609 -43.075639 32.574506 -22.462986 -3.394731 5.844895 18.659181 1.462865 -3.871617 26.869004 13.527764 -0.342219 -82.283164 55.679924 -60.628645 17.111102 5.429994 7.957429 
0.006219 0.336726 0.976018 59.760792 3.340060 84.399005 6.198206 5.694102 11.652245 -2.904290 -4.390639 8.270766 2.375911 9.200662 -20.175600 0.000000 -0.000000 0.000000 -8.219161 -0.538995 -14.861914 -1.310462 3.898693 21.350154 9.066980 -7.939824 -2.372788 0.000000 -0.000000 0.000000 0.434269 -2.548315 3.627501 1.177295 -3.473887 7.319238 -2.212346 -2.411534 0.221151 7.141759 -2.790078 -8.596160 -1.095925 -4.995523 2.475765 -25.132089 -4.473381 1.039546 -47.250342 -5.957355 12.145773 -8.221763 -43.227727 33.081144 -16.807922 -4.587147 5.080829 15.737964 4.180177 -5.664779 20.182789 17.861689 -5.826513 -85.469586 50.183795 -65.107255 5.542580 7.227886 10.011513 
